<?xml version="1.0" encoding="utf-8"?>
<!-- Generator: Adobe Illustrator 26.0.0, SVG Export Plug-In . SVG Version: 6.00 Build 0)  -->
<svg version="1.1" id="Calque_1" xmlns="http://www.w3.org/2000/svg" xmlns:xlink="http://www.w3.org/1999/xlink" x="0px" y="0px"
	 viewBox="205 375 185 90" style="enable-background:new 0 0 595.28 841.89;" xml:space="preserve">
<style type="text/css">
	.st0{fill:#10535A;}
	.st1{fill:#55BDB8;}
</style>
<g>
	<path class="st0" d="M230.55,458.31v-8.59h1.69l3.52,5.74v-5.74h1.61v8.59h-1.74l-3.46-5.6v5.6H230.55z"/>
	<path class="st0" d="M239.2,458.31v-8.59h6.37v1.45h-4.63v1.9h4.31v1.45h-4.31v2.34h4.8v1.45H239.2z"/>
	<path class="st0" d="M249.39,458.31l-3.07-8.59h1.88l2.17,6.36l2.1-6.36h1.84l-3.08,8.59H249.39z"/>
	<path class="st0" d="M255.2,458.31v-8.59h6.37v1.45h-4.63v1.9h4.31v1.45h-4.31v2.34h4.8v1.45H255.2z"/>
	<path class="st0" d="M263.21,458.31v-8.59h3.65c0.92,0,1.58,0.08,2,0.23s0.75,0.43,1,0.82s0.38,0.85,0.38,1.35
		c0,0.64-0.19,1.18-0.57,1.6s-0.95,0.68-1.7,0.79c0.38,0.22,0.68,0.46,0.93,0.72s0.57,0.73,0.99,1.39l1.05,1.68h-2.07l-1.25-1.87
		c-0.45-0.67-0.75-1.09-0.91-1.26s-0.34-0.29-0.52-0.36s-0.47-0.1-0.87-0.1h-0.35v3.59H263.21z M264.95,453.35h1.28
		c0.83,0,1.35-0.04,1.56-0.11s0.37-0.19,0.49-0.36s0.18-0.39,0.18-0.64c0-0.29-0.08-0.52-0.23-0.7s-0.37-0.29-0.65-0.34
		c-0.14-0.02-0.56-0.03-1.27-0.03h-1.35V453.35z"/>
	<path class="st0" d="M277.14,458.31v-7.14h-2.55v-1.45h6.83v1.45h-2.54v7.14H277.14z"/>
	<path class="st0" d="M282.54,458.31v-8.59h3.65c0.92,0,1.58,0.08,2,0.23s0.75,0.43,1,0.82s0.38,0.85,0.38,1.35
		c0,0.64-0.19,1.18-0.57,1.6s-0.95,0.68-1.7,0.79c0.38,0.22,0.68,0.46,0.93,0.72s0.57,0.73,0.99,1.39l1.05,1.68h-2.07l-1.25-1.87
		c-0.45-0.67-0.75-1.09-0.91-1.26s-0.34-0.29-0.52-0.36s-0.47-0.1-0.87-0.1h-0.35v3.59H282.54z M284.28,453.35h1.28
		c0.83,0,1.35-0.04,1.56-0.11s0.37-0.19,0.49-0.36s0.18-0.39,0.18-0.64c0-0.29-0.08-0.52-0.23-0.7s-0.37-0.29-0.65-0.34
		c-0.14-0.02-0.56-0.03-1.27-0.03h-1.35V453.35z"/>
	<path class="st0" d="M298.95,458.31h-1.89l-0.75-1.95h-3.43l-0.71,1.95h-1.84l3.35-8.59h1.83L298.95,458.31z M295.76,454.91
		l-1.18-3.19l-1.16,3.19H295.76z"/>
	<path class="st0" d="M301.17,458.31l-3.07-8.59h1.88l2.17,6.36l2.1-6.36h1.84l-3.08,8.59H301.17z"/>
	<path class="st0" d="M306.98,458.31v-8.59h6.37v1.45h-4.63v1.9h4.31v1.45h-4.31v2.34h4.8v1.45H306.98z"/>
	<path class="st0" d="M315.03,458.31v-8.52h1.73v7.07h4.31v1.45H315.03z"/>
	<path class="st0" d="M332.73,458.31h-1.89l-0.75-1.95h-3.43l-0.71,1.95h-1.84l3.35-8.59h1.83L332.73,458.31z M329.54,454.91
		l-1.18-3.19l-1.16,3.19H329.54z"/>
	<path class="st0" d="M333.7,458.31v-8.52h1.73v7.07h4.31v1.45H333.7z"/>
	<path class="st0" d="M340.63,454.07c0-0.88,0.13-1.61,0.39-2.2c0.2-0.44,0.46-0.83,0.8-1.18s0.71-0.61,1.11-0.77
		c0.54-0.23,1.15-0.34,1.85-0.34c1.27,0,2.28,0.39,3.04,1.18s1.14,1.88,1.14,3.28c0,1.39-0.38,2.47-1.13,3.25s-1.76,1.17-3.02,1.17
		c-1.28,0-2.29-0.39-3.05-1.17S340.63,455.43,340.63,454.07z M342.42,454.01c0,0.97,0.22,1.71,0.67,2.21s1.02,0.75,1.71,0.75
		s1.26-0.25,1.7-0.75s0.67-1.25,0.67-2.24c0-0.98-0.22-1.72-0.65-2.2s-1-0.73-1.72-0.73s-1.29,0.25-1.73,0.74
		S342.42,453.02,342.42,454.01z"/>
	<path class="st0" d="M350.34,458.31v-8.59h1.69l3.52,5.74v-5.74h1.61v8.59h-1.74l-3.46-5.6v5.6H350.34z"/>
	<path class="st0" d="M358.98,458.31v-8.59h6.37v1.45h-4.63v1.9h4.31v1.45h-4.31v2.34h4.8v1.45H358.98z"/>
</g>
<g>
	<g>
		<g>
			<path class="st0" d="M330.27,420.98c-3.89-9.27-2.42-22.11,7.64-30.59c9.52-8.03,22.68-8,31.29-2.58
				c-2.08,1.57-2.89,3.6-2.07,6.12c0.8,2.47,2.72,3.65,5.28,4.23c-0.99,0.76-1.89,1.45-2.82,2.17c-1.16-1.6-2.52-2.97-4.13-4.06
				c-3.29-2.25-6.92-3.35-10.91-3.06c-7.33,0.52-12.5,4.27-15.63,10.82c-1.77,3.71-2.02,7.64-1.04,11.63
				c0.08,0.32,0.12,0.53-0.26,0.71C335.01,417.63,332.62,419.23,330.27,420.98z"/>
			<path class="st0" d="M349.02,437.36c0.41-1.42,0.76-2.82,1.21-4.18c0.45-1.34,1.01-2.65,1.53-4c0.8,0.08,1.55,0.18,2.31,0.24
				c5.12,0.37,9.65-1.14,13.5-4.5c3.49-3.05,5.44-6.95,5.96-11.56c0.23-2.04,0.13-4.06-0.35-6.06c-0.08-0.35-0.03-0.61,0.23-0.9
				c2.25-2.53,3.9-5.4,4.76-8.69c0.09-0.34,0.15-0.69,0.26-1.18c2.77,4.29,4.18,8.88,4.3,13.85c0.12,4.96-0.96,9.67-3.44,13.97
				C372.44,436.26,359.15,440.24,349.02,437.36z"/>
			<path class="st0" d="M346.76,436.75c-2.59-0.91-4.95-2.16-7.13-3.76c-3.15-2.33-5.76-5.15-7.76-8.53
				c-0.27-0.46-0.2-0.69,0.16-1.03c3.49-3.27,7.45-5.88,11.71-7.98c4.62-2.27,9.34-4.33,14.05-6.43c3.93-1.76,7.85-3.53,11.47-5.89
				c2.84-1.85,5.49-3.94,7.49-6.74c0.04-0.06,0.07-0.14,0.11-0.21c0.07,0.04-0.07-0.04,0,0c-0.49,1.04-0.74,2.24-1.28,3.25
				c-1.96,3.69-4.75,6.68-7.99,9.27c-3.69,2.95-7.28,6.02-10.52,9.47c-4.37,4.66-7.58,10.03-9.54,16.13
				C347.28,435.1,347.03,435.88,346.76,436.75z"/>
			<path class="st1" d="M376.36,392.17c0.01,2.03-1.61,3.65-3.64,3.64c-2.05-0.01-3.68-1.65-3.67-3.7c0.01-1.85,1.74-3.5,3.7-3.51
				C374.66,388.58,376.35,390.26,376.36,392.17z"/>
			<path class="st1" d="M331.84,424.42c0.94,1.58,2.7,4.21,4.55,5.8c0,0,6.92-8.81,18.94-16.05c12.01-7.24,20.37-13.63,21.53-17.99
				c0,0-6.52,8.44-27.47,16.36c0,0-7.81,2.43-17.39,10.81C331.68,423.62,331.63,424.07,331.84,424.42z"/>
		</g>
	</g>
	<g>
		<path class="st0" d="M236.47,402.83h-8.06v14.83c0,1.24,0.31,2.14,0.93,2.71c0.62,0.57,1.52,0.89,2.71,0.96
			c1.19,0.07,2.66,0.06,4.42-0.04v8.34c-6.32,0.71-10.78,0.12-13.37-1.78c-2.59-1.9-3.89-5.3-3.89-10.19v-14.83h-6.2v-8.84h6.2
			v-9.98h9.19v9.98h8.06V402.83z"/>
		<path class="st0" d="M252.72,400.12c0.86-2.28,2.27-3.99,4.24-5.13c1.97-1.14,4.17-1.71,6.59-1.71v10.27
			c-2.81-0.33-5.31,0.24-7.52,1.71c-2.21,1.47-3.31,3.92-3.31,7.34v17.04h-9.19v-35.64h9.19V400.12z"/>
		<path class="st0" d="M273.46,389.71c-1.52,0-2.84-0.56-3.96-1.68s-1.68-2.43-1.68-3.96c0-1.52,0.56-2.85,1.68-3.99
			c1.12-1.14,2.43-1.71,3.96-1.71c1.57,0,2.91,0.57,4.03,1.71c1.12,1.14,1.68,2.47,1.68,3.99c0,1.52-0.56,2.84-1.68,3.96
			S275.03,389.71,273.46,389.71z"/>
		<rect x="268.9" y="393.99" class="st0" width="9.19" height="35.64"/>
		<path class="st0" d="M319.55,398.44c-3.4-3.64-7.5-5.45-12.3-5.45c-4.99,0-8.84,1.74-11.55,5.2v-4.2h-9.19v49.9h9.19v-18.46
			c2.71,3.47,6.56,5.2,11.55,5.2c4.8,0,8.9-1.82,12.3-5.45c3.4-3.63,5.1-8.09,5.1-13.37C324.64,406.53,322.94,402.08,319.55,398.44z
			 M312.63,419.05c-1.88,1.88-4.24,2.81-7.09,2.81c-2.85,0-5.2-0.94-7.06-2.81c-1.85-1.88-2.78-4.29-2.78-7.24s0.93-5.36,2.78-7.24
			c1.85-1.88,4.21-2.81,7.06-2.81c2.85,0,5.22,0.94,7.09,2.81c1.88,1.88,2.81,4.29,2.81,7.24S314.51,417.17,312.63,419.05z"/>
	</g>
</g>
</svg>
